<?xml version="1.0" encoding="UTF-8"?>
<svg width="752pt" height="752pt" version="1.1" viewBox="0 0 752 752" xmlns="http://www.w3.org/2000/svg">
 <path d="m376 208.27c-44.484 0-87.145 17.672-118.6 49.129-31.457 31.453-49.129 74.113-49.129 118.6s17.672 87.148 49.129 118.6c31.453 31.457 74.113 49.125 118.6 49.125s87.148-17.668 118.6-49.125c31.457-31.453 49.125-74.117 49.125-118.6s-17.668-87.145-49.125-118.6c-31.453-31.457-74.117-49.129-118.6-49.129zm93.336 118.39-113.07 113.07c-1.8516 1.8672-4.375 2.918-7.0039 2.918-2.6328 0-5.1562-1.0508-7.0078-2.918l-59.199-59.199h0.003906c-3.9805-3.8672-4.0664-10.23-0.19922-14.207 3.8711-3.9766 10.23-4.0664 14.207-0.19531l52.191 52.293 105.67-106.16c3.9805-3.9766 10.43-3.9766 14.406 0 3.9766 3.9766 3.9766 10.426 0 14.406z" fill="#03fb0a"/>
</svg>
